<svg xmlns="http://www.w3.org/2000/svg" xmlns:xlink="http://www.w3.org/1999/xlink" width="500" zoomAndPan="magnify" viewBox="0 0 375 374.999991" height="500" preserveAspectRatio="xMidYMid meet" version="1.0"><defs><g/><clipPath id="8e962776b1"><path d="M 154 93.417969 L 221 93.417969 L 221 243.417969 L 154 243.417969 Z M 154 93.417969 " clip-rule="nonzero"/></clipPath><clipPath id="a2cd960fbb"><path d="M 112.5 135 L 262.5 135 L 262.5 202 L 112.5 202 Z M 112.5 135 " clip-rule="nonzero"/></clipPath></defs><g clip-path="url(#8e962776b1)"><path fill="#2a3c50" d="M 187.5 243.417969 C 168.5625 243.417969 154.28125 211.175781 154.28125 168.417969 C 154.28125 125.65625 168.5625 93.417969 187.5 93.417969 C 206.433594 93.417969 220.71875 125.65625 220.71875 168.417969 C 220.71875 211.175781 206.433594 243.417969 187.5 243.417969 Z M 187.5 103.082031 C 176.363281 103.082031 163.945312 129.917969 163.945312 168.417969 C 163.945312 206.917969 176.363281 233.757812 187.5 233.757812 C 198.636719 233.757812 211.054688 206.917969 211.054688 168.417969 C 211.054688 129.917969 198.636719 103.082031 187.5 103.082031 Z M 187.5 103.082031 " fill-opacity="1" fill-rule="nonzero"/></g><g clip-path="url(#a2cd960fbb)"><path fill="#2a3c50" d="M 187.5 201.636719 C 144.742188 201.636719 112.5 187.351562 112.5 168.417969 C 112.5 149.484375 144.742188 135.199219 187.5 135.199219 C 230.25 135.199219 262.5 149.484375 262.5 168.417969 C 262.5 187.351562 230.25 201.636719 187.5 201.636719 Z M 187.5 144.867188 C 149 144.867188 122.164062 157.277344 122.164062 168.417969 C 122.164062 179.558594 149 191.972656 187.5 191.972656 C 226 191.972656 252.835938 179.558594 252.835938 168.417969 C 252.835938 157.277344 226 144.867188 187.5 144.867188 Z M 187.5 144.867188 " fill-opacity="1" fill-rule="nonzero"/></g><path fill="#6a7b92" d="M 225.988281 226.390625 C 209.519531 226.390625 185.191406 212.707031 164.011719 191.515625 C 150.335938 177.832031 139.59375 162.742188 133.777344 149.019531 C 127.375 133.925781 127.617188 121.839844 134.46875 114.992188 C 137.953125 111.5 142.984375 109.652344 149.011719 109.652344 C 165.472656 109.652344 189.804688 123.347656 210.992188 144.539062 C 241.21875 174.769531 253.914062 207.675781 240.523438 221.0625 C 237.039062 224.550781 232.015625 226.390625 225.988281 226.390625 Z M 149.011719 119.320312 C 145.558594 119.320312 142.960938 120.160156 141.300781 121.824219 C 137.535156 125.589844 138.046875 134.34375 142.675781 145.246094 C 148.011719 157.855469 158.019531 171.855469 170.84375 184.683594 C 190.007812 203.851562 212.164062 216.730469 225.988281 216.730469 C 229.441406 216.730469 232.035156 215.890625 233.691406 214.234375 C 241.574219 206.351562 231.378906 178.601562 204.15625 151.367188 C 184.992188 132.199219 162.828125 119.320312 149.011719 119.320312 Z M 149.011719 119.320312 " fill-opacity="1" fill-rule="nonzero"/><path fill="#6a7b92" d="M 149.011719 226.390625 C 142.898438 226.390625 138.003906 224.597656 134.46875 221.0625 C 121.082031 207.660156 133.785156 174.769531 164.011719 144.539062 C 185.195312 123.351562 209.523438 109.660156 225.988281 109.660156 C 232.097656 109.660156 236.996094 111.460938 240.53125 114.996094 C 247.378906 121.839844 247.621094 133.925781 241.222656 149.019531 C 235.40625 162.742188 224.664062 177.835938 210.992188 191.515625 C 189.804688 212.707031 165.472656 226.390625 149.011719 226.390625 Z M 225.988281 119.324219 C 212.175781 119.324219 190.015625 132.207031 170.84375 151.367188 C 143.625 178.59375 133.425781 206.347656 141.300781 214.234375 C 142.957031 215.890625 145.558594 216.730469 149.011719 216.730469 C 162.828125 216.730469 184.992188 203.851562 204.15625 184.683594 C 216.980469 171.855469 226.988281 157.855469 232.324219 145.246094 C 236.953125 134.34375 237.457031 125.59375 233.699219 121.828125 C 232.035156 120.167969 229.441406 119.324219 225.988281 119.324219 Z M 225.988281 119.324219 " fill-opacity="1" fill-rule="nonzero"/><path fill="#405166" d="M 199.242188 168.363281 C 199.242188 175.375 193.554688 181.070312 186.535156 181.070312 C 179.523438 181.070312 173.832031 175.375 173.832031 168.363281 C 173.832031 161.347656 179.523438 155.65625 186.535156 155.65625 C 193.554688 155.65625 199.242188 161.347656 199.242188 168.363281 Z M 199.242188 168.363281 " fill-opacity="1" fill-rule="nonzero"/><g fill="#ffffff" fill-opacity="1"><g transform="translate(143.727292, 264.393059)"><g><path d="M 12.714844 0 L 17.15625 0 L 12.269531 -14.703125 L 5.4375 -14.703125 L 0.554688 0 L 4.996094 0 L 5.835938 -2.519531 L 11.875 -2.519531 Z M 6.941406 -5.835938 L 8.84375 -11.585938 L 10.765625 -5.835938 Z M 6.941406 -5.835938 "/></g></g></g><g fill="#ffffff" fill-opacity="1"><g transform="translate(161.43066, 264.393059)"><g><path d="M 14.304688 -14.703125 L 0.664062 -14.703125 L 0.664062 -11.210938 L 5.261719 -11.210938 L 5.261719 0 L 9.707031 0 L 9.707031 -11.210938 L 14.304688 -11.210938 Z M 14.304688 -14.703125 "/></g></g></g><g fill="#ffffff" fill-opacity="1"><g transform="translate(176.393431, 264.393059)"><g><path d="M 21.226562 -14.703125 L 13.796875 -14.703125 L 11.253906 -4.820312 L 8.710938 -14.703125 L 1.105469 -14.703125 L 1.105469 0 L 5.527344 0 L 5.527344 -12.003906 L 8.777344 0 L 13.574219 0 L 16.804688 -11.917969 L 16.804688 0 L 21.226562 0 Z M 21.226562 -14.703125 "/></g></g></g><g fill="#ffffff" fill-opacity="1"><g transform="translate(198.716023, 264.393059)"><g><path d="M 8.820312 0.355469 C 14.835938 0.355469 16.871094 -3.539062 16.871094 -7.320312 C 16.871094 -11.03125 14.835938 -15.058594 8.820312 -15.058594 C 2.832031 -15.058594 0.773438 -11.054688 0.773438 -7.320312 C 0.773438 -3.515625 2.832031 0.355469 8.820312 0.355469 Z M 5.394531 -7.320312 C 5.394531 -9.925781 5.96875 -11.453125 8.820312 -11.453125 C 11.695312 -11.453125 12.25 -9.925781 12.25 -7.320312 C 12.25 -4.777344 11.695312 -3.25 8.820312 -3.25 C 5.96875 -3.25 5.394531 -4.777344 5.394531 -7.320312 Z M 5.394531 -7.320312 "/></g></g></g><g fill="#ffffff" fill-opacity="1"><g transform="translate(216.353084, 264.393059)"><g><path d="M 0.664062 -4.730469 C 0.882812 -2.144531 2.566406 0.375 7.429688 0.375 C 12.402344 0.375 14.214844 -1.660156 14.214844 -4.554688 C 14.214844 -7.273438 12.78125 -8.910156 9.351562 -9.199219 L 6.808594 -9.417969 C 5.75 -9.507812 5.351562 -9.992188 5.351562 -10.636719 C 5.351562 -11.429688 6.191406 -11.875 7.40625 -11.875 C 8.777344 -11.875 9.574219 -11.253906 9.707031 -10.28125 L 14.085938 -10.28125 C 13.90625 -12.867188 12.050781 -15.058594 7.382812 -15.058594 C 3.050781 -15.058594 0.882812 -13.15625 0.882812 -10.304688 C 0.882812 -7.738281 2.476562 -6.167969 5.195312 -5.882812 L 8.3125 -5.550781 C 9.242188 -5.4375 9.75 -5.042969 9.75 -4.199219 C 9.75 -3.339844 9.019531 -2.808594 7.515625 -2.808594 C 5.75 -2.808594 5.105469 -3.847656 4.976562 -4.730469 Z M 0.664062 -4.730469 "/></g></g></g><g fill="#ffffff" fill-opacity="1"><g transform="translate(131.430304, 281.981525)"><g><path d="M 7.765625 -7.980469 L 0.359375 -7.980469 L 0.359375 -6.085938 L 2.855469 -6.085938 L 2.855469 0 L 5.269531 0 L 5.269531 -6.085938 L 7.765625 -6.085938 Z M 7.765625 -7.980469 "/></g></g></g><g fill="#ffffff" fill-opacity="1"><g transform="translate(142.434334, 281.981525)"><g><path d="M 3.011719 -1.894531 L 3.011719 -3.179688 L 6.742188 -3.179688 L 6.742188 -4.921875 L 3.011719 -4.921875 L 3.011719 -6.085938 L 7.105469 -6.085938 L 7.105469 -7.980469 L 0.601562 -7.980469 L 0.601562 0 L 7.140625 0 L 7.140625 -1.894531 Z M 3.011719 -1.894531 "/></g></g></g><g fill="#ffffff" fill-opacity="1"><g transform="translate(152.934365, 281.981525)"><g><path d="M 4.726562 0.191406 C 7.738281 0.191406 8.832031 -0.757812 9.035156 -3.347656 L 6.539062 -3.347656 C 6.457031 -2.269531 6.046875 -1.765625 4.714844 -1.765625 C 3.421875 -1.765625 2.929688 -2.507812 2.929688 -3.972656 C 2.929688 -5.472656 3.480469 -6.214844 4.789062 -6.214844 C 6.085938 -6.214844 6.445312 -5.652344 6.515625 -4.667969 L 8.988281 -4.667969 C 8.820312 -7.054688 7.679688 -8.171875 4.726562 -8.171875 C 1.546875 -8.171875 0.421875 -6.046875 0.421875 -3.972656 C 0.421875 -1.847656 1.546875 0.191406 4.726562 0.191406 Z M 4.726562 0.191406 "/></g></g></g><g fill="#ffffff" fill-opacity="1"><g transform="translate(165.210406, 281.981525)"><g><path d="M 6.769531 -7.980469 L 6.769531 -2.003906 C 6.683594 -2.304688 6.589844 -2.605469 6.480469 -2.878906 L 4.511719 -7.980469 L 0.601562 -7.980469 L 0.601562 0 L 2.878906 0 L 2.878906 -5.976562 C 2.976562 -5.617188 3.085938 -5.28125 3.203125 -4.957031 L 5.136719 0 L 9.046875 0 L 9.046875 -7.980469 Z M 6.769531 -7.980469 "/></g></g></g><g fill="#ffffff" fill-opacity="1"><g transform="translate(177.738444, 281.981525)"><g><path d="M 4.789062 0.191406 C 8.050781 0.191406 9.15625 -1.921875 9.15625 -3.972656 C 9.15625 -5.988281 8.050781 -8.171875 4.789062 -8.171875 C 1.535156 -8.171875 0.421875 -6 0.421875 -3.972656 C 0.421875 -1.90625 1.535156 0.191406 4.789062 0.191406 Z M 2.929688 -3.972656 C 2.929688 -5.386719 3.238281 -6.214844 4.789062 -6.214844 C 6.347656 -6.214844 6.648438 -5.386719 6.648438 -3.972656 C 6.648438 -2.59375 6.347656 -1.765625 4.789062 -1.765625 C 3.238281 -1.765625 2.929688 -2.59375 2.929688 -3.972656 Z M 2.929688 -3.972656 "/></g></g></g><g fill="#ffffff" fill-opacity="1"><g transform="translate(190.194476, 281.981525)"><g><path d="M 3.035156 -1.894531 L 3.035156 -7.980469 L 0.601562 -7.980469 L 0.601562 0 L 6.46875 0 L 6.46875 -1.894531 Z M 3.035156 -1.894531 "/></g></g></g><g fill="#ffffff" fill-opacity="1"><g transform="translate(199.90251, 281.981525)"><g><path d="M 4.789062 0.191406 C 8.050781 0.191406 9.15625 -1.921875 9.15625 -3.972656 C 9.15625 -5.988281 8.050781 -8.171875 4.789062 -8.171875 C 1.535156 -8.171875 0.421875 -6 0.421875 -3.972656 C 0.421875 -1.90625 1.535156 0.191406 4.789062 0.191406 Z M 2.929688 -3.972656 C 2.929688 -5.386719 3.238281 -6.214844 4.789062 -6.214844 C 6.347656 -6.214844 6.648438 -5.386719 6.648438 -3.972656 C 6.648438 -2.59375 6.347656 -1.765625 4.789062 -1.765625 C 3.238281 -1.765625 2.929688 -2.59375 2.929688 -3.972656 Z M 2.929688 -3.972656 "/></g></g></g><g fill="#ffffff" fill-opacity="1"><g transform="translate(212.358545, 281.981525)"><g><path d="M 4.152344 0.191406 C 5.976562 0.191406 6.601562 -0.636719 6.886719 -1.378906 L 6.886719 0 L 8.878906 0 L 8.878906 -4.5 L 4.285156 -4.5 L 4.285156 -3.035156 L 6.601562 -3.035156 C 6.480469 -2.242188 6.058594 -1.644531 4.765625 -1.644531 C 3.527344 -1.644531 2.929688 -2.410156 2.929688 -3.972656 C 2.929688 -5.6875 3.683594 -6.335938 4.945312 -6.335938 C 5.902344 -6.335938 6.433594 -5.878906 6.492188 -5.386719 L 8.890625 -5.386719 C 8.820312 -6.828125 7.777344 -8.171875 4.90625 -8.171875 C 1.714844 -8.171875 0.421875 -6.277344 0.421875 -3.984375 C 0.421875 -1.738281 1.570312 0.191406 4.152344 0.191406 Z M 4.152344 0.191406 "/></g></g></g><g fill="#ffffff" fill-opacity="1"><g transform="translate(224.790581, 281.981525)"><g><path d="M 5.664062 -6.085938 L 5.664062 -7.980469 L 0.601562 -7.980469 L 0.601562 -6.085938 L 1.933594 -6.085938 L 1.933594 -1.894531 L 0.601562 -1.894531 L 0.601562 0 L 5.664062 0 L 5.664062 -1.894531 L 4.332031 -1.894531 L 4.332031 -6.085938 Z M 5.664062 -6.085938 "/></g></g></g><g fill="#ffffff" fill-opacity="1"><g transform="translate(233.934616, 281.981525)"><g><path d="M 6.898438 0 L 9.3125 0 L 6.660156 -7.980469 L 2.953125 -7.980469 L 0.300781 0 L 2.710938 0 L 3.167969 -1.367188 L 6.445312 -1.367188 Z M 3.769531 -3.167969 L 4.800781 -6.289062 L 5.84375 -3.167969 Z M 3.769531 -3.167969 "/></g></g></g></svg>